<?xml version="1.0" standalone="no"?><!DOCTYPE svg PUBLIC "-//W3C//DTD SVG 1.1//EN" "http://www.w3.org/Graphics/SVG/1.1/DTD/svg11.dtd"><svg t="1661697237894" class="icon" viewBox="0 0 1024 1024" version="1.1" xmlns="http://www.w3.org/2000/svg" p-id="1194" xmlns:xlink="http://www.w3.org/1999/xlink" width="24" height="24"><path d="M973.14 273.14q22.86 32.57 10.29 73.71L826.29 864.56q-10.86 36.57-43.71 61.43t-70 24.86H185.15q-44 0-84.86-30.57t-56.86-75.14q-13.71-38.29-1.14-72.57 0-2.29 1.71-15.43T46.29 736q0.57-4.57-1.71-12.29-2.28-7.72-1.71-11.14 1.14-6.29 4.57-12 3.43-5.71 9.43-13.43t9.43-13.43Q79.44 652 92.01 621.42t17.14-52.29q1.71-5.71 2.86-17.14t2.86-16q1.71-6.29 9.71-16t9.71-13.14q12-20.57 24-52.57t14.29-51.43q0.57-5.14-1.43-18.29-2-13.15 2.86-16 2.29-7.43 12.57-17.43 10.28-10 12.57-12.86 10.86-14.86 24.29-48.29t15.71-55.14q0.57-4.57-1.71-14.57t-1.14-15.14q1.14-4.57 5.14-10.29 4-5.72 10.29-13.14 6.29-7.42 9.71-12 4.57-6.86 9.43-17.43 4.86-10.57 8.57-20t9.14-20.57q5.43-11.14 11.14-18.29 5.71-7.15 15.14-13.43 9.43-6.28 20.57-6.57 11.14-0.29 27.14 3.14l-0.57 1.71q21.71-5.14 29.14-5.14H826q42.29 0 65.14 32t10.29 74.29L744.86 697.12q-20.57 68-40.86 87.71-20.29 19.71-73.43 19.71H134q-15.43 0-21.71 8.57-6.29 9.14-0.57 24.57 13.71 40 82.29 40h527.43q16.57 0 32-8.86t20-23.71l171.43-564q4-12.57 2.86-32.57 21.71 8.57 33.71 24.57z m-608 1.15q-2.29 7.43 1.14 12.86 3.43 5.43 11.43 5.43h347.43q7.43 0 14.57-5.43 7.14-5.43 9.43-12.86l12-36.57q2.29-7.43-1.14-12.86-3.43-5.43-11.43-5.43H401.14q-7.43 0-14.57 5.43-7.14 5.43-9.43 12.86z m-47.43 146.28q-2.29 7.43 1.14 12.86 3.43 5.43 11.43 5.43h347.43q7.43 0 14.57-5.43 7.14-5.43 9.43-12.86l12-36.57q2.29-7.43-1.14-12.86-3.43-5.43-11.43-5.43H353.71q-7.43 0-14.57 5.43-7.14 5.43-9.43 12.86z" fill="#48D597" p-id="1195"></path></svg>